<svg xmlns="http://www.w3.org/2000/svg" xmlns:xlink="http://www.w3.org/1999/xlink" version="1.1" baseProfile="full" viewBox="0 0 200 200" width="200" height="200">
<g fill="#044">
<path d="M 145.5 173.9 L 135.5 169.0 L 125.2 164.4 L 114.6 159.9 L 108.78178262710571 157.67849884033203 L 100.8 164.4 L 87.7 172.3 L 73.2 178.5 L 57.3 183.1 L 39.9 186.0 L 21.0 187.2 L 20.9 185.4 L 39.3 182.3 L 55.9 177.9 L 70.8 172.4 L 84.1 165.6 L 95.6 157.6 L 99.32554426193238 154.13524389266968 L 92.4 151.6 L 80.8 147.6 L 68.9 143.7 L 61.09329309463501 141.20441341400146 L 57.6 146.9 L 52.9 154.0 L 43.0 147.2 L 47.5 140.5 L 52.0 133.3 L 56.4 125.6 L 60.8 117.5 L 65.2 108.9 L 68.82637367248535 101.4 L 14.0 101.4 L 14.0 97.4 L 70.71157894134521 97.4 L 74.0 90.3 L 78.4 80.3 L 82.7 69.8 L 86.60494918823242 59.90140790939331 L 86.6 59.9 L 87.5 57.6 L 98.2 63.2 L 100.3 66.2 L 96.76952314376831 66.80870294570923 L 93.8 74.3 L 89.4 85.0 L 85.0 95.2 L 83.97938146591187 97.4 L 164.0 97.4 L 174.0 87.4 L 186.0 97.4 L 186.0 101.4 L 141.5842767715454 101.4 L 136.9 116.6 L 130.4 130.9 L 122.1 143.7 L 115.35270595550537 151.2651478767395 L 117.5 151.9 L 128.6 155.7 L 139.5 159.8 L 150.0 164.1 L 160.3 168.8 L 170.2 173.6 L 173.0 177.2 L 172.6 181.8 L 169.0 184.6 L 164.4 184.2 L 155.1 178.9 Z M 82.12371129989624 101.4 L 80.5 104.9 L 76.0 114.2 L 71.4 123.1 L 66.9 131.5 L 62.5246696472168 138.85427865982055 L 69.8 140.0 L 82.2 142.4 L 94.3 145.3 L 105.52472124099731 148.3700092315674 L 105.6 148.3 L 114.0 137.8 L 120.8 125.9 L 126.2 112.7 L 129.17368421554565 101.4 Z M 33.3 52.3 L 33.0 57.6 L 32.3 62.5 L 31.1 67.1 L 29.5 71.3 L 27.5 75.2 L 24.9 78.6 L 21.8 81.6 L 17.4 82.5 L 13.5 80.1 L 12.6 75.6 L 15.0 71.7 L 17.0 70.5 L 19.0 68.8 L 20.9 66.5 L 22.7 63.6 L 24.4 60.2 L 25.9 56.1 L 27.2 51.5 L 28.3 46.3 L 29.3 40.5 L 30.1 34.2 L 31.9 34.1 L 32.7 40.6 L 33.13999996185303 45.0 L 94.0 45.0 L 94.0 13.3 L 106.0 15.3 L 109.0 17.3 L 106.0 19.1 L 106.0 45.0 L 170.0 45.0 L 170.52727270126343 44.56060609817505 L 170.7 44.1 L 170.9285223007202 44.22623138427734 L 176.0 40.0 L 187.0 49.0 L 182.0 52.0 L 178.4064516067505 53.49731178283692 L 177.7 54.4 L 175.7 56.9 L 173.5 59.4 L 171.2 62.1 L 168.7 64.9 L 166.0 67.8 L 163.0 70.7 L 159.8 73.8 L 156.7 77.1 L 155.2 76.0 L 157.5 72.0 L 159.4 68.1 L 161.3 64.4 L 163.1 61.0 L 164.7 57.7 L 166.2 54.6 L 167.6 51.7 L 168.8 49.0 L 33.3 49.0 Z " />
</g>
</svg>

