<svg xmlns="http://www.w3.org/2000/svg" xmlns:xlink="http://www.w3.org/1999/xlink" version="1.1" baseProfile="full" viewBox="0 0 200 200" width="200" height="200">
<g fill="#049">
<path d="M 160.4 174.8 L 152.2 170.9 L 144.2 166.8 L 136.7 162.5 L 129.5 157.8 L 122.7 152.9 L 116.3 147.7 L 110.4 142.1 L 106.0 137.11886796951293 L 106.0 182.2 L 94.0 188.2 L 94.0 143.1274193763733 L 92.3 144.8 L 85.6 150.5 L 78.3 155.9 L 70.6 160.8 L 62.3 165.4 L 53.5 169.6 L 44.2 173.3 L 34.4 176.7 L 24.1 179.5 L 13.2 181.8 L 12.7 180.1 L 22.9 175.9 L 32.5 171.7 L 41.6 167.3 L 50.1 162.8 L 58.1 158.0 L 65.5 153.0 L 72.3 147.8 L 78.6 142.4 L 84.2 136.8 L 18.0 136.8 L 18.0 132.8 L 94.0 132.8 L 94.0 113.5 L 106.0 115.5 L 109.0 117.5 L 106.0 119.3 L 106.0 132.8 L 160.0 132.8 L 170.0 122.8 L 182.0 132.8 L 182.0 136.8 L 109.65 136.8 L 113.0 138.9 L 119.8 142.9 L 126.7 146.9 L 133.8 150.7 L 141.1 154.3 L 148.7 157.6 L 156.6 160.8 L 164.7 163.8 L 173.2 166.5 L 181.9 169.0 L 189.6 171.4 L 178.0 181.7 L 169.0 178.3 Z M 146.2 115.1 L 136.2 112.1 L 125.8 109.2 L 115.1 106.4 L 108.87212972640991 104.87134094238282 L 99.9 109.2 L 87.1 113.6 L 72.8 117.0 L 57.0 119.4 L 39.7 120.8 L 21.0 121.0 L 20.9 119.3 L 39.4 117.0 L 56.2 114.1 L 71.3 110.6 L 84.7 106.3 L 95.61915874481201 101.76577301025391 L 92.7 101.1 L 81.1 98.5 L 69.1 95.9 L 62.034899616241454 94.34912433624268 L 61.3 95.1 L 56.6 99.5 L 51.8 103.7 L 44.1 94.6 L 48.5 90.7 L 52.9 86.5 L 57.3 82.1 L 61.6 77.3 L 66.0 72.4 L 67.05471696853638 71.1 L 14.0 71.1 L 14.0 67.1 L 70.3 67.1 L 74.6 61.6 L 78.9 55.9 L 83.2 49.8 L 86.84884796142578 44.32672815322876 L 86.8 44.3 L 87.9 42.7 L 97.4 50.1 L 98.8 53.4 L 95.24904098510743 53.277553176879884 L 93.0 56.6 L 88.6 62.9 L 85.51999998092651 67.1 L 164.0 67.1 L 174.0 57.1 L 186.0 67.1 L 186.0 71.1 L 141.65238094329834 71.1 L 141.6 71.2 L 136.4 81.0 L 129.6 89.6 L 121.2 97.2 L 119.16936826705933 98.53324308395386 L 127.9 100.2 L 138.6 102.4 L 149.0 104.8 L 159.1 107.3 L 168.9 110.0 L 172.4 113.0 L 172.8 117.6 L 169.8 121.0 L 165.3 121.4 L 155.9 118.2 Z M 82.46315793991089 71.1 L 79.7 74.6 L 75.1 80.1 L 70.6 85.4 L 65.9 90.4 L 64.51793718338013 91.81210765838622 L 69.7 92.1 L 81.9 93.2 L 93.9 94.6 L 105.5 96.3 L 105.58357772827148 96.31319646835327 L 106.5 95.8 L 114.9 89.5 L 121.6 82.6 L 126.7 75.0 L 128.41864404678344 71.1 Z M 33.0 40.3 L 32.7 44.2 L 31.9 47.9 L 30.7 51.4 L 29.1 54.6 L 27.0 57.6 L 24.3 60.2 L 21.3 62.5 L 16.7 62.7 L 13.3 59.7 L 13.0 55.2 L 16.0 51.7 L 18.0 51.0 L 19.8 50.0 L 21.6 48.7 L 23.3 47.1 L 24.8 44.9 L 26.3 42.4 L 27.6 39.3 L 28.7 35.8 L 29.7 31.9 L 30.1 27.5 L 31.9 27.4 L 32.4 31.9 L 32.667441844940186 34.2 L 94.0 34.2 L 94.0 12.1 L 106.0 14.1 L 109.0 16.1 L 106.0 17.9 L 106.0 34.2 L 170.0 34.2 L 170.63157892227173 33.673684215545656 L 171.2 32.6 L 171.57458925247192 32.88784227371216 L 176.0 29.2 L 187.0 38.2 L 182.0 41.2 L 176.41739130020142 43.52608699798584 L 175.2 44.5 L 173.0 46.2 L 170.7 48.0 L 168.2 49.8 L 165.5 51.7 L 162.7 53.6 L 159.6 55.5 L 156.6 57.8 L 155.3 56.4 L 157.8 53.6 L 159.8 50.6 L 161.7 47.8 L 163.6 45.2 L 165.2 42.8 L 166.7 40.4 L 168.1 38.2 L 32.94878044128418 38.2 Z "/>
</g>
</svg>
